<?xml version="1.0" standalone="no"?>
<!DOCTYPE svg PUBLIC "-//W3C//DTD SVG 20010904//EN"
 "http://www.w3.org/TR/2001/REC-SVG-20010904/DTD/svg10.dtd">
<svg version="1.0" xmlns="http://www.w3.org/2000/svg"
 width="522.000000pt" height="270.000000pt" viewBox="0 0 522.000000 270.000000"
 preserveAspectRatio="xMidYMid meet">

<g transform="translate(0.000000,270.000000) scale(0.100000,-0.100000)"
fill="#000000" stroke="none">
<path d="M390 1335 l0 -995 310 0 310 0 0 925 c0 509 4 925 8 925 5 0 35 -17
68 -38 80 -52 129 -120 173 -237 60 -161 71 -314 71 -1011 l0 -564 305 0 305
0 0 709 c0 571 -3 732 -15 823 -15 115 -41 212 -76 280 -25 49 -15 49 87 -1
158 -76 246 -185 296 -366 22 -78 22 -93 26 -762 l3 -683 310 0 310 0 -4 733
c-3 710 -4 734 -24 807 -52 184 -113 297 -222 413 l-35 37 -1103 0 -1103 0 0
-995z"/>
<path d="M3130 1335 l0 -995 310 0 310 0 0 405 0 405 210 0 210 0 0 -405 0
-405 305 0 305 0 0 995 0 995 -305 0 -305 0 0 -380 0 -380 -210 0 -210 0 0
380 0 380 -310 0 -310 0 0 -995z"/>
</g>
</svg>
